# xmcd
#
# Track frame offsets:
#	150
#	18479
#	36225
#	55724
#	72361
#	89796
#	105483
#	121672
#	138748
#	157888
#	181783
#	199250
#	217304
#	242958
#	264342
#	288926
#
# Disc length: 4102 seconds
#
# Revision: 0
# Processed by: cddbd v1.5.2PL0 Copyright (c) Steve Scherf et al.
# Submitted via: EasyCDDAExtractor 10.0.1.1
#
DISCID=ec100410
DTITLE=Air Supply - The Collection
DYEAR=2009
DGENRE=Ballad
TTITLE0=All Out Of Love
TTITLE1=Even The Nights Are Better
TTITLE2=Empty Pages
TTITLE3=Love And Other Bruises
TTITLE4=Lost In Love
TTITLE5=Every Woman In The World
TTITLE6=Chances
TTITLE7=Here I Am (Just When I Thought I Was Over You)
TTITLE8=The One That You Love
TTITLE9=Sweet Dreams
TTITLE10=Young Love
TTITLE11=Two Less Lonely People In The World
TTITLE12=Making Love Out Of Nothing At All
TTITLE13=Just As I Am
TTITLE14=The Power Of Love (You Are My Lady)
TTITLE15=Lonely Is The Night
EXTD=
EXTT0=
EXTT1=
EXTT2=
EXTT3=
EXTT4=
EXTT5=
EXTT6=
EXTT7=
EXTT8=
EXTT9=
EXTT10=
EXTT11=
EXTT12=
EXTT13=
EXTT14=
EXTT15=
PLAYORDER=
